<?xml version="1.0" encoding="UTF-8" standalone="no"?>
<svg
   width="672.68311"
   zoomAndPan="magnify"
   viewBox="0 0 504.38041 175.99042"
   height="234.6539"
   preserveAspectRatio="xMidYMid"
   version="1.0"
   id="svg19883"
   xml:space="preserve"
   xmlns="http://www.w3.org/2000/svg"
   xmlns:svg="http://www.w3.org/2000/svg"><defs
     id="defs19823" /><path
     style="fill:#000000;stroke-width:0.75"
     d="m 97.614757,175.58045 c -23.406,-2.5066 -44.2104,-11.7339 -54.9307,-24.3632 -3.6773,-4.3322 -8.0693,-11.1417 -8.0693,-12.511 0,-0.5972 2.9933,-0.8501 9.9375,-0.8398 l 9.9375,0.015 3.375,4.2644 c 3.9115,4.9423 12.7722,11.2573 19.2057,13.6878 2.4306,0.9183 7.6255,2.5446 11.5443,3.614 6.6523,1.8155 8.2444,1.9473 24.000003,1.9868 14.8723,0.037 17.8303,-0.1622 24.9243,-1.6815 17.0197,-3.6449 29.9577,-9.4722 38.1142,-17.1665 l 5.0601,-4.7735 11.7246,0.2069 11.7245,0.207 -3.7047,5.625 c -4.3267,6.5693 -12.8775,15.3026 -19.0789,19.4863 -8.9261,6.0218 -21.505,9.4487 -42.6803,11.6276 -9.8994,1.0186 -33.9525,1.3786 -41.083803,0.6149 z m 273.000003,0.073 c -9.9906,-1.1334 -21.6291,-2.9008 -27.3414,-4.1522 -12.3313,-2.7013 -23.2361,-8.9931 -31.9563,-18.4378 -4.0005,-4.3328 -10.4523,-13.3317 -10.4523,-14.5786 0,-0.348 5.165,-0.6328 11.4779,-0.6328 h 11.4779 l 2.5846,2.698 c 12.6699,13.2256 37.0991,21.339 64.3442,21.37 20.6997,0.023 36.8121,-4.1693 48.2674,-12.5601 3.6782,-2.6943 10.348,-9.6805 10.348,-10.839 0,-0.3679 4.7611,-0.6689 10.5802,-0.6689 8.4909,0 10.5048,0.1968 10.1978,0.9966 -1.2958,3.3769 -6.815,10.6698 -11.7328,15.5034 -9.676,9.5103 -21.7665,15.3225 -39.8785,19.1707 -8.2895,1.7612 -11.2333,1.9986 -27.2917,2.2013 -9.9,0.1249 -19.1813,0.093 -20.625,-0.071 z m -51.75,-47.5645 c -5.5481,-0.9644 -11.7657,-3.6582 -15.795,-6.8431 -2.0855,-1.6485 -3.9751,-3.4749 -4.1991,-4.0587 -0.3089,-0.8049 -1.1594,-0.4517 -3.5191,1.4613 -8.7169,7.0668 -13.5161,8.0007 -43.6192,8.4883 l -24.0074,0.3888 -8.4003,-17.1493 c -4.6202,-9.432 -10.4287,-21.3679 -12.9079,-26.5242 l -4.5074,-9.375 -0.022,26.4375 -0.022,26.4375 h -15.4125 -15.4125 l -9.9453,-20.4375 c -5.4698,-11.2406 -11.1061,-22.9062 -12.525,-25.9235 l -2.5797,-5.486 -0.375,25.736 -0.375,25.736 -10.1291,0.2075 -10.129,0.2074 c -13.0655,-20.04576 -26.696303,-19.05683 -37.491903,-0.056 l -10.6875,0.01 -10.6875,0.01 v -16.5 -16.5 h -13.5 -13.5 v 16.5 16.5 h -4.7058 -4.7057 l -4.0716,-17.8125 c -4.7245,-20.6691 -6.2317,-27.2128 -10.4377,-45.3156 -1.6936,-7.2892 -3.0792,-13.786 -3.0792,-14.4375 0,-1.0353 1.699,-1.1844 13.5,-1.1844 h 13.5 v 15 15 h 13.5 13.5 v -15 -15 h 9.3591 9.3592 l 0.2033,14.6452 0.2034,14.6452 4.8837,-14.4577 4.8837,-14.4577 h 11.160203 11.1602 l 4.9561,14.5849 4.9561,14.5849 0.2034,-14.7724 0.2033,-14.7724 h 10.3594 10.3595 l 4.7697,9.9375 c 2.6234,5.4656 8.4107,17.3625 12.8606,26.4375 l 8.0909,16.5 0.014,-26.4375 0.014,-26.4375 h 15.4165 15.4166 l 8.0795,16.6944 c 4.4437,9.182 10.0782,20.876 12.521,25.9868 l 4.4414,9.2923 0.375,-25.7992 0.375,-25.7993 21.75,0.04 c 17.5328,0.033 22.8944,0.2875 27.652,1.3145 6.1139,1.3197 11.4193,3.7784 15.4846,7.1762 l 2.3557,1.9689 3.4091,-3.1769 c 6.3602,-5.927 14.1594,-8.5787 25.3674,-8.6248 10.0003,-0.041 18.7588,2.9177 24.5437,8.2914 l 2.0625,1.9159 v -4.6403 -4.6403 l 11.4375,6e-4 c 13.2893,8e-4 26.3416,1.0765 31.6875,2.6116 2.0625,0.5923 5.7315,2.2718 8.1534,3.7323 2.4218,1.4605 4.5099,2.6555 4.6402,2.6555 0.1303,0 0.1737,-1.9406 0.097,-4.3125 l -0.1402,-4.3125 11.25,-0.2226 c 20.7887,-0.4114 34.0384,1.7314 40.7449,6.5895 1.7144,1.242 3.2888,2.2581 3.4986,2.2581 0.2098,0 0.3815,-2.025 0.3815,-4.5 v -4.5 h 13.875 c 12.9923,0 13.875,0.088 13.875,1.3854 0,1.2433 -2.9583,14.4822 -13.8314,61.8973 -1.8802,8.1993 -3.4186,15.0337 -3.4186,15.1875 0,0.1539 -2.3625,0.2798 -5.25,0.2798 h -5.25 v -4.5 c 0,-2.475 -0.1589,-4.5 -0.3531,-4.5 -0.1942,0 -1.7973,1.0125 -3.5625,2.25 -7.1675,5.0249 -19.4493,7.0192 -40.6313,6.5974 l -11.1719,-0.2224 0.03,-4.3125 c 0.016,-2.3719 -0.062,-4.3125 -0.1747,-4.3125 -0.1125,0 -2.1861,1.195 -4.608,2.6555 -8.0247,4.8393 -17.031,6.3282 -38.3408,6.3383 l -12.9375,0.01 v -4.5777 -4.5777 l -2.777,2.4382 c -7.308,6.4165 -20.2276,9.4523 -31.723,7.4541 z m 15.2074,-16.284 c 6.4287,-3.7546 9.7455,-11.8832 9.7033,-23.7798 -0.058,-16.397 -6.3006,-25.5183 -17.4107,-25.4405 -10.4483,0.073 -16.2852,7.9454 -17.0721,23.025 -0.7597,14.5604 3.8266,24.7932 12.3358,27.5234 3.083,0.9892 9.6819,0.2849 12.4437,-1.3281 z m -56.8324,-2.6466 c 7.8662,-4.02 11.1017,-9.9265 11.192,-20.4313 0.072,-8.4095 -1.2196,-12.9852 -4.8215,-17.0771 -4.2888,-4.8723 -8.6371,-6.6989 -16.9866,-7.1357 l -7.0089,-0.3666 v 23.8294 23.8294 l 6.9375,-0.3659 c 5.4768,-0.2888 7.7271,-0.7693 10.6875,-2.2822 z m 113.1743,-0.1114 c 7.2492,-3.5467 10.9507,-10.6687 10.9507,-21.0699 0,-10.4012 -3.7015,-17.5232 -10.9507,-21.0699 -3.3038,-1.6164 -5.5355,-2.0919 -11.2121,-2.3888 l -7.0872,-0.3707 v 23.8294 23.8294 l 7.0872,-0.3707 c 5.6766,-0.2969 7.9083,-0.7724 11.2121,-2.3888 z m 55.0458,0.3281 c 7.7412,-3.3846 11.7023,-10.6189 11.7161,-21.398 0.01,-7.2996 -1.0892,-11.296 -4.2692,-15.531 -3.6833,-4.9051 -9.3739,-7.4372 -17.7934,-7.9173 l -6.7486,-0.3848 v 23.8208 23.8208 l 6.5625,-0.3374 c 4.6351,-0.2382 7.7285,-0.8471 10.5326,-2.0731 z m -330.983,-14.8355 c -0.5865,-1.9594 -2.6797,-8.7029 -4.6517,-14.9857 l -3.5854,-11.4231 -2.7834,8.6195 c -1.5308,4.7407 -3.498603,11.0211 -4.372703,13.9563 -0.8742,2.9353 -1.7671,5.8 -1.9844,6.3662 -0.3219,0.8387 1.3488,1.0293 9.024403,1.0293 h 9.4194 z M 2.1973573,41.05005 l -2.30200002,-2.302 0.4621,-6.8855 c 0.5072,-7.5567 2.74050002,-17.0673 5.08880002,-21.6702 1.8819,-3.6888003 4.0047,-4.6119003 15.0374997,-6.5387003 15.9761,-2.79010004 27.9601,-3.42760004 64.006,-3.40480004 57.705003,0.037 77.564203,2.42970004 124.125003,14.95800034 38.4183,10.3373 46.0333,10.7719 71.6777,4.0908 48.1007,-12.5318003 51.7835,-13.3626003 69.3223,-15.6386003 18.0715,-2.3451 31.7697,-3.12110004 63,-3.56880004 45.6044,-0.6539 79.0113,2.28800004 84.5548,7.44590004 3.1951,2.9728003 7.0187,17.0458003 7.2215,26.5789003 0.089,4.1764 -0.1206,4.867 -2.1041,6.9375 l -2.2028,2.2995 -18.4222,-0.015 -18.4222,-0.015 -2.25,-3.8173 c -3.3637,-5.7069 -9.3282,-10.7407 -17.1526,-14.4761 -13.9334,-6.6519 -25.4307,-8.3454 -52.2224,-7.6923 -45.0559,1.0985 -71.8172,7.7752 -86.6031,21.6067 l -4.713,4.4088 h -48.1883 -48.1882 l -4.9875,-4.705 c -12.6719,-11.954 -34.0351,-18.2847 -70.1949,-20.8011 -15.4475,-1.075 -37.067803,-0.9133 -45.378103,0.3395 -18.5873,2.802 -32.3593,9.9413 -39.0072,20.2208 l -3.1986,4.9458 H 22.827657 4.4993573 Z"
     id="path1" /></svg>
